<svg width="249" height="249" viewBox="0 0 249 249" fill="none" xmlns="http://www.w3.org/2000/svg">
<rect width="249" height="249" rx="124.5" fill="#1D1DC9"/>
<path d="M44.6127 192.313C81.9557 236.946 148.306 242.768 192.81 205.316C214.291 187.239 226.755 162.386 229.705 136.489L209.228 129.015C208.02 151.533 197.871 173.513 179.287 189.153C143.684 219.114 90.6038 214.457 60.729 178.75C30.8544 143.043 35.4983 89.8088 71.1015 59.8473C106.705 29.8856 159.785 34.5432 189.66 70.2499C198.584 80.9159 204.428 93.1458 207.286 105.852L229.884 114.101C227.884 93.6669 219.929 73.6035 205.776 56.6874C168.433 12.054 102.082 6.23255 57.5783 43.6841C13.0743 81.136 7.26936 147.679 44.6127 192.313Z" fill="white"/>
<path d="M57.5783 43.6841C37.4385 60.6325 25.2241 83.5385 21.347 107.676L41.5288 115.423C43.7807 94.5209 53.775 74.4282 71.1015 59.8473C106.705 29.8856 159.785 34.5432 189.66 70.2499L165.485 90.5937L230 115.36C228.208 94.4917 220.22 73.9505 205.776 56.6874C168.433 12.054 102.082 6.23255 57.5783 43.6841Z" fill="white"/>
<path d="M93.6368 124.5H72.5984C72.5984 153.632 96.1465 177.249 125.194 177.249C154.242 177.249 177.79 153.632 177.79 124.5H156.752C156.752 141.98 142.624 156.149 125.194 156.149C107.765 156.149 93.6368 141.98 93.6368 124.5Z" fill="white"/>
</svg>
